<?xml version="1.0" standalone="no"?>
<!DOCTYPE svg PUBLIC "-//W3C//DTD SVG 1.1//EN" "http://www.w3.org/Graphics/SVG/1.1/DTD/svg11.dtd" >
<svg xmlns="http://www.w3.org/2000/svg">
<metadata>Generated by IcoMoon</metadata>
<defs>
<font id="icomoon" horiz-adv-x="1024">
<font-face units-per-em="1024" ascent="960" descent="-64" />
<missing-glyph horiz-adv-x="1024" />
<glyph unicode="&#x20;" horiz-adv-x="512" d="" />
<glyph unicode="&#xe900;" glyph-name="haus-abc" d="M339.537 272.842h-59.284c-5.389 0-13.474 2.695-16.168 5.389-5.389 2.695-8.084 8.084-8.084 13.474l-18.863 59.284h-129.347l-18.863-59.284c-2.695-5.389-5.389-8.084-10.779-13.474-5.389-2.695-10.779-5.389-16.168-5.389h-59.284l129.347 342.232h78.147l129.347-342.232zM123.958 404.884h91.621l-29.642 94.316c-2.695 5.389-5.389 13.474-8.084 21.558s-5.389 16.168-8.084 26.947c-2.695-10.779-5.389-18.863-8.084-26.947s-5.389-16.168-8.084-21.558l-29.642-94.316zM412.295 272.842v342.232h121.263c24.253 0 43.116-2.695 59.284-5.389 16.168-5.389 29.642-10.779 40.421-18.863s18.863-18.863 21.558-29.642c5.389-10.779 8.084-24.253 8.084-37.726 0-8.084 0-16.168-2.695-21.558-2.695-8.084-5.389-13.474-10.779-18.863s-10.779-10.779-18.863-16.168c-8.084-5.389-16.168-10.779-26.947-13.474 21.558-5.389 37.726-13.474 48.505-26.947s16.168-26.947 16.168-48.505c0-13.474-2.695-26.947-8.084-40.421s-13.474-24.253-24.253-32.337c-10.779-8.084-24.253-16.168-40.421-21.558s-32.337-8.084-53.895-8.084h-129.347c0 0 0-2.695 0-2.695zM487.747 472.253h40.421c8.084 0 16.168 0 24.253 2.695 8.084 0 13.474 2.695 16.168 5.389 5.389 2.695 8.084 8.084 10.779 13.474s2.695 13.474 2.695 21.558 0 16.168-2.695 21.558-5.389 10.779-8.084 13.474c-5.389 2.695-8.084 5.389-16.168 8.084-5.389 2.695-13.474 2.695-21.558 2.695h-45.811v-88.926zM487.747 418.358v-86.232h53.895c10.779 0 18.863 0 24.253 2.695s10.779 5.389 16.168 10.779c2.695 5.389 5.389 8.084 8.084 13.474s2.695 8.084 2.695 13.474 0 10.779-2.695 16.168-5.389 8.084-8.084 13.474c-2.695 2.695-8.084 5.389-16.168 8.084-5.389 5.389-13.474 5.389-24.253 5.389 0 2.695-53.895 2.695-53.895 2.695zM980.884 361.768c2.695 0 2.695 0 5.389 0s2.695-2.695 5.389-2.695l29.642-32.337c-13.474-18.863-29.642-32.337-51.2-40.421-18.863-8.084-43.116-13.474-72.758-13.474-24.253 0-48.505 5.389-67.368 13.474s-37.726 21.558-51.2 37.726-24.253 35.032-32.337 56.589c-8.084 21.558-10.779 45.811-10.779 70.063s5.389 48.505 13.474 70.063c8.084 21.558 21.558 40.421 35.032 56.589 16.168 16.168 32.337 26.947 53.895 35.032s45.811 13.474 70.063 13.474c13.474 0 24.253 0 35.032-2.695s21.558-5.389 29.642-8.084c10.779-2.695 18.863-8.084 26.947-13.474s16.168-10.779 21.558-18.863l-26.947-35.032c-2.695-2.695-2.695-5.389-5.389-5.389s-5.389-2.695-10.779-2.695c-2.695 0-5.389 0-8.084 2.695-2.695 0-5.389 2.695-8.084 5.389s-5.389 2.695-8.084 5.389-8.084 5.389-10.779 5.389-10.779 2.695-16.168 5.389c-5.389 0-13.474 2.695-21.558 2.695-13.474 0-26.947-2.695-37.726-8.084s-21.558-13.474-29.642-21.558c-8.084-10.779-13.474-21.558-18.863-35.032s-8.084-29.642-8.084-45.811c0-18.863 2.695-32.337 8.084-45.811s10.779-24.253 18.863-35.032c8.084-8.084 16.168-16.168 26.947-21.558s21.558-8.084 35.032-8.084c8.084 0 13.474 0 18.863 0s10.779 2.695 16.168 2.695c5.389 2.695 10.779 2.695 13.474 5.389 5.389 2.695 8.084 5.389 13.474 10.779 2.695 2.695 2.695 2.695 5.389 2.695 8.084-5.389 10.779-5.389 13.474-5.389z" />
<glyph unicode="&#xe901;" glyph-name="haus-arrow-circle-left" d="M512-20.48c-258.56 0-468.48 209.92-468.48 468.48s209.92 468.48 468.48 468.48 468.48-209.92 468.48-468.48-209.92-468.48-468.48-468.48zM512-64c281.6 0 512 230.4 512 512s-230.4 512-512 512-512-230.4-512-512 230.4-512 512-512v0zM611.84 253.44c2.56 5.12 5.12 15.36-7.68 25.6l-181.76 166.4 2.56 2.56c38.4 35.84 79.36 74.24 117.76 110.080l64 58.88c7.68 7.68 10.24 15.36 5.12 25.6s-15.36 17.92-25.6 17.92c-5.12 0-10.24 0-17.92-7.68l-202.24-189.44c-5.12-5.12-7.68-10.24-7.68-17.92s2.56-12.8 7.68-17.92c0 0 148.48-135.68 202.24-184.32 7.68-5.12 12.8-7.68 17.92-7.68 10.24 0 20.48 7.68 25.6 17.92z" />
<glyph unicode="&#xe902;" glyph-name="haus-arrow-circle-right" d="M512 916.48c258.56 0 468.48-209.92 468.48-468.48s-209.92-468.48-468.48-468.48-468.48 209.92-468.48 468.48 209.92 468.48 468.48 468.48zM512 960c-281.6 0-512-230.4-512-512s230.4-512 512-512 512 230.4 512 512-230.4 512-512 512v0zM412.16 642.56c-2.56-5.12-5.12-15.36 7.68-25.6l181.76-166.4-2.56-2.56c-38.4-35.84-79.36-74.24-117.76-110.080l-64-58.88c-7.68-7.68-10.24-15.36-5.12-25.6s15.36-17.92 25.6-17.92c5.12 0 10.24 0 17.92 7.68l202.24 189.44c5.12 5.12 7.68 10.24 7.68 17.92s-2.56 12.8-7.68 17.92c0 0-148.48 135.68-202.24 184.32-7.68 5.12-12.8 7.68-17.92 7.68-10.24 0-20.48-7.68-25.6-17.92z" />
<glyph unicode="&#xe903;" glyph-name="haus-arrow-left" d="M751.832-64c-10.779 0-26.947 2.695-43.116 16.168-129.347 118.568-487.747 444.632-487.747 444.632-10.779 10.779-18.863 26.947-18.863 43.116 0 18.863 5.389 35.032 18.863 45.811l493.137 458.105c13.474 13.474 29.642 16.168 40.421 16.168 26.947 0 53.895-18.863 61.979-43.116 8.084-21.558 2.695-43.116-16.168-61.979l-153.6-142.821c-94.316-88.926-191.326-177.853-285.642-266.779l-5.389-5.389 441.937-398.821c24.253-24.253 21.558-48.505 16.168-59.284-8.084-26.947-35.032-45.811-61.979-45.811z" />
<glyph unicode="&#xe904;" glyph-name="haus-arrow-right" d="M272.168 960c10.779 0 26.947-2.695 43.116-16.168 129.347-118.568 487.747-444.632 487.747-444.632 10.779-10.779 18.863-26.947 18.863-43.116 0-18.863-5.389-35.032-18.863-45.811l-493.137-458.105c-13.474-13.474-29.642-16.168-40.421-16.168-26.947 0-53.895 18.863-61.979 43.116-8.084 21.558-2.695 43.116 16.168 61.979l153.6 142.821c94.316 88.926 191.326 177.853 285.642 266.779l5.389 5.389-444.632 398.821c-24.253 24.253-21.558 48.505-16.168 61.979 10.779 24.253 37.726 43.116 64.674 43.116z" />
<glyph unicode="&#xe905;" glyph-name="haus-close" d="M512 916.884c258.695 0 468.884-210.189 468.884-468.884s-210.189-468.884-468.884-468.884c-258.695 0-468.884 210.189-468.884 468.884s210.189 468.884 468.884 468.884zM512 960c-282.947 0-512-229.053-512-512s229.053-512 512-512c282.947 0 512 229.053 512 512s-229.053 512-512 512v0zM697.937 598.905l-150.905-150.905 145.516-145.516c8.084-8.084 8.084-24.253 0-32.337v0c-8.084-8.084-24.253-8.084-32.337 0l-145.516 145.516-150.905-150.905c-8.084-8.084-24.253-8.084-32.337 0l-2.695 2.695c-8.084 8.084-8.084 24.253 0 32.337l150.905 150.905-145.516 145.516c-8.084 8.084-8.084 24.253 0 32.337v0c8.084 8.084 24.253 8.084 32.337 0l145.516-145.516 150.905 150.905c8.084 8.084 24.253 8.084 32.337 0l2.695-2.695c8.084-8.084 8.084-24.253 0-32.337z" />
<glyph unicode="&#xe906;" glyph-name="haus-counter" d="M638.293 408.747h-83.627c3.413 13.653 8.533 54.613 8.533 54.613-1.707 20.48-15.36 46.080-15.36 46.080-15.36 6.827-22.187-1.707-22.187-1.707s0-32.427 0-39.253c0-6.827-35.84-66.56-44.373-73.387-5.12-3.413-13.653-10.24-20.48-13.653v-95.573h5.12c6.827 0 13.653-10.24 22.187-10.24h121.173c23.893 0 29.013 27.307 11.947 30.72v3.413c15.36 1.707 25.6 25.6 5.12 30.72v3.413c15.36 1.707 25.6 25.6 5.12 30.72v3.413c22.187 0 27.307 30.72 6.827 30.72zM512 960c-187.733 0-341.333-153.6-341.333-344.747 0-259.413 341.333-679.253 341.333-679.253s341.333 419.84 341.333 679.253c0 191.147-153.6 344.747-341.333 344.747zM650.24 340.48c6.827-11.947 1.707-25.6-5.12-34.133 3.413-5.12 8.533-46.080-35.84-46.080h-119.467c-8.533 0-15.36 3.413-20.48 6.827-1.707 1.707-5.12 0-5.12 0v-3.413c0-6.827-5.12-13.653-13.653-13.653h-80.213c-6.827 0-11.947 5.12-13.653 11.947v124.587c0 6.827 6.827 13.653 13.653 13.653h88.747c1.707 0 5.12 0 6.827-1.707 8.533 3.413 35.84 51.2 44.373 68.267 0 8.533 0 37.547 0 37.547 0 3.413 1.707 13.653 18.773 17.067 13.653 3.413 25.6-3.413 29.013-8.533 0-1.707 15.36-29.013 15.36-51.2 0-1.707-3.413-27.307-6.827-42.667h69.973c27.307 0 32.427-30.72 15.36-46.080 11.947-13.653 3.413-27.307-1.707-32.427z" />
<glyph unicode="&#xe907;" glyph-name="haus-facebook" d="M512 960c-282.947 0-512-229.053-512-512v0c0-282.947 229.053-512 512-512v0c282.947 0 512 229.053 512 512v0c0 282.947-229.053 512-512 512zM630.568 601.6h-43.116c-35.032 0-40.421-16.168-40.421-40.421v-51.2h80.842l-10.779-80.842h-70.063v-210.189h-83.537v210.189h-70.063v80.842h70.063v59.284c0 70.063 43.116 107.789 105.095 107.789 29.642 0 56.589-2.695 61.979-2.695v-72.758z" />
<glyph unicode="&#xe908;" glyph-name="haus-flipboard" d="M512 960c-282.947 0-512-229.053-512-512s229.053-512 512-512c282.947 0 512 229.053 512 512s-229.053 512-512 512zM269.474 369.853v320.674h485.053v-161.684h-161.684v-161.684h-161.684v-161.684h-161.684v164.379z" />
<glyph unicode="&#xe909;" glyph-name="haus-gallery" d="M967.314 791.771h-56.686v56.686c0 31.086-25.6 56.686-56.686 56.686h-797.257c-31.086 0-56.686-25.6-56.686-56.686v-685.714c0-31.086 25.6-56.686 56.686-56.686h56.686v-56.686c0-31.086 25.6-56.686 56.686-56.686h797.257c31.086 0 56.686 25.6 56.686 56.686v685.714c0 31.086-25.6 56.686-56.686 56.686zM115.2 735.086v-572.343h-56.686v685.714h795.429v-56.686h-682.057c-31.086 0-56.686-25.6-56.686-56.686v0zM967.314 49.371v0h-795.429v683.886h795.429v-683.886zM853.943 590.629c0-47.543-38.4-85.943-85.943-85.943s-85.943 38.4-85.943 85.943 38.4 85.943 85.943 85.943 85.943-38.4 85.943-85.943zM910.629 106.057h-682.057v113.371l199.314 343.771 226.743-285.257h56.686l199.314 171.886v-343.771z" />
<glyph unicode="&#xe90a;" glyph-name="haus-hamburger" d="M0 128h1024v128h-1024v-128zM0 384h1024v128h-1024v-128zM0 768v-128h1024v128h-1024z" />
<glyph unicode="&#xe90b;" glyph-name="haus-haus-sign" d="M1024-64h-1024v706.048l512 317.952 512-317.952v-706.048z" />
<glyph unicode="&#xe90c;" glyph-name="haus-instagram" d="M700.632 590.821c-5.389 10.779-10.779 18.863-18.863 26.947s-16.168 13.474-26.947 18.863c-8.084 2.695-21.558 8.084-45.811 8.084s-32.337 2.695-97.011 2.695c-8.084 0-16.168 0-21.558 0v0c-45.811 0-53.895 0-75.453-2.695-24.253 0-37.726-5.389-45.811-8.084-10.779-5.389-18.863-10.779-26.947-18.863s-13.474-16.168-18.863-26.947c-2.695-8.084-8.084-21.558-8.084-45.811s-2.695-32.337-2.695-97.011 0-72.758 2.695-97.011c0-24.253 5.389-37.726 8.084-45.811 5.389-10.779 10.779-18.863 18.863-26.947s16.168-13.474 26.947-18.863c8.084-2.695 21.558-8.084 45.811-8.084s32.337-2.695 97.011-2.695c64.674 0 72.758 0 97.011 2.695 24.253 0 37.726 5.389 45.811 8.084 10.779 5.389 18.863 10.779 26.947 18.863s13.474 16.168 18.863 26.947c2.695 8.084 8.084 21.558 8.084 45.811s2.695 32.337 2.695 97.011c0 64.674 0 72.758-2.695 97.011 0 24.253-5.389 37.726-8.084 45.811zM512 324.042c-70.063 0-123.958 56.589-123.958 123.958s56.589 123.958 123.958 123.958 123.958-56.589 123.958-123.958-53.895-123.958-123.958-123.958zM641.347 547.705c-16.168 0-29.642 13.474-29.642 29.642s13.474 29.642 29.642 29.642v0c16.168 0 29.642-13.474 29.642-29.642s-13.474-29.642-29.642-29.642zM512 960c-282.947 0-512-229.053-512-512s229.053-512 512-512 512 229.053 512 512-229.053 512-512 512zM751.832 348.295c0-26.947-5.389-43.116-10.779-59.284s-13.474-29.642-26.947-43.116c-13.474-13.474-26.947-21.558-43.116-26.947s-32.337-10.779-59.284-10.779c-26.947 0-35.032-2.695-99.705-2.695s-75.453 0-99.705 2.695c-26.947 0-43.116 5.389-59.284 10.779s-29.642 13.474-43.116 26.947c-13.474 13.474-21.558 26.947-26.947 43.116s-10.779 32.337-10.779 59.284c0 26.947-2.695 35.032-2.695 99.705s0 75.453 2.695 99.705c0 26.947 5.389 43.116 10.779 59.284s13.474 29.642 26.947 43.116c13.474 13.474 26.947 21.558 43.116 26.947s32.337 10.779 59.284 10.779c26.947 0 35.032 2.695 99.705 2.695s72.758 0 99.705-2.695c26.947 0 43.116-5.389 59.284-10.779s29.642-13.474 43.116-26.947c13.474-13.474 21.558-26.947 26.947-43.116s10.779-32.337 10.779-59.284c0-26.947 2.695-35.032 2.695-99.705s0-75.453-2.695-99.705zM512 528.842c-45.811 0-80.842-35.032-80.842-80.842s35.032-80.842 80.842-80.842c45.811 0 80.842 35.032 80.842 80.842s-35.032 80.842-80.842 80.842z" />
<glyph unicode="&#xe90d;" glyph-name="haus-login" d="M512 960c-282.947 0-512-229.053-512-512s229.053-512 512-512 512 229.053 512 512-229.053 512-512 512zM512 116.547c-137.432 0-256 86.232-307.2 207.495 48.505 121.263 167.074 145.516 304.505 145.516 140.126 0 258.695-26.947 307.2-150.905-51.2-118.568-169.768-202.105-304.505-202.105zM512 771.368c80.842 0 145.516-64.674 145.516-145.516s-64.674-145.516-145.516-145.516-145.516 64.674-145.516 145.516c-2.695 80.842 64.674 145.516 145.516 145.516z" />
<glyph unicode="&#xe90e;" glyph-name="haus-logo" d="M0 355.328h44.032c21.504 0 45.568 2.56 62.464 12.288 27.648 15.36 45.568 48.128 45.568 81.92 0 29.696-13.312 57.856-31.232 73.216-11.264 9.728-31.744 22.528-78.336 22.528h-42.496v-189.952zM34.816 512.512h6.656c22.016 0 40.448-2.56 55.296-15.872 12.288-10.752 20.48-28.16 20.48-46.592 0-20.48-9.728-41.984-28.672-52.224-14.848-8.192-27.136-9.216-46.080-9.216h-7.68v123.904zM307.712 497.664h-31.232v-17.92h-0.512c-1.024 2.048-18.432 23.040-47.104 23.040-39.936 0-71.168-31.744-71.168-75.264 0-47.616 32.768-76.8 68.608-76.8 17.92 0 38.912 9.728 49.664 22.528v-17.92h31.232l0.512 142.336zM275.456 427.008c0-26.624-17.92-45.056-41.472-45.056-24.576 0-42.496 19.968-42.496 44.032 0 21.504 14.336 45.568 42.496 45.568 19.968 0 41.472-14.848 41.472-44.544v0zM429.056 459.264c-1.536 28.16-28.672 43.52-53.248 43.52-26.112 0-54.784-16.384-54.784-44.032 0-23.552 17.92-35.328 36.352-40.96 28.16-8.192 36.864-10.752 36.864-21.504 0-6.144-5.12-14.336-17.92-14.336-16.384 0-19.968 11.776-21.504 18.432h-39.936c1.024-8.704 2.56-19.968 12.288-30.72 12.8-13.824 32.768-18.944 49.152-18.944 28.16 0 56.832 17.92 56.832 49.664 0 28.672-25.6 37.376-45.568 42.496-20.992 6.144-27.648 7.68-27.648 15.872 0 6.144 5.12 12.288 14.848 12.288 4.096 0 12.8-1.024 15.872-12.288l38.4 0.512zM465.408 355.328h35.328v79.872h67.584v-79.872h35.328v189.952h-35.328v-77.312h-67.584v77.312h-35.328v-189.952zM761.344 497.664h-31.232v-17.92h-0.512c-1.024 2.048-18.432 23.040-47.104 23.040-39.424 0-70.656-31.744-70.656-75.264 0-47.616 32.768-76.8 68.608-76.8 17.92 0 38.912 9.728 49.664 22.528v-17.92h31.232v142.336zM729.088 427.008c0-26.624-17.92-45.056-41.472-45.056-24.576 0-42.496 19.968-42.496 44.032 0 21.504 14.336 45.568 42.496 45.568 19.968 0 41.472-14.848 41.472-44.544v0zM864.256 497.664v-72.704c0-22.528-7.168-43.008-28.672-43.008-29.696 0-29.696 31.744-29.696 43.008v72.704h-34.304v-74.24c0-11.776 0-34.816 10.752-50.176 7.168-9.728 22.016-22.528 47.616-22.528 22.016 0 31.232 11.264 36.864 18.944h0.512v-14.336h31.232v142.336h-34.304zM1019.392 459.264c-1.536 28.16-28.672 43.52-53.248 43.52-26.112 0-54.784-16.384-54.784-44.032 0-23.552 17.92-35.328 36.352-40.96 28.16-8.192 36.864-10.752 36.864-21.504 0-6.144-5.12-14.336-17.92-14.336-16.384 0-19.968 11.776-21.504 18.432h-39.424c1.024-8.704 2.56-19.968 12.288-30.72 12.8-13.824 32.768-18.944 49.152-18.944 28.16 0 56.832 17.92 56.832 49.664 0 28.672-25.6 37.376-45.568 42.496-20.992 6.144-27.648 7.68-27.648 15.872 0 6.144 5.12 12.288 14.848 12.288 4.096 0 12.8-1.024 15.872-12.288l37.888 0.512z" />
<glyph unicode="&#xe90f;" glyph-name="haus-mail" d="M662.905 598.905h-301.811c-21.558 0-37.726-16.168-37.726-37.726v-226.358c0-21.558 16.168-37.726 37.726-37.726h301.811c21.558 0 37.726 16.168 37.726 37.726v226.358c0 21.558-16.168 37.726-37.726 37.726zM344.926 326.737v40.421l105.095 64.674 32.337-18.863-137.432-86.232zM668.295 326.737l-137.432 86.232 35.032 18.863 102.4-64.674v-40.421zM673.684 528.842l-161.684-102.4-161.684 102.4v40.421l161.684-99.705 161.684 99.705v-40.421zM512 960c-282.947 0-512-229.053-512-512s229.053-512 512-512 512 229.053 512 512-229.053 512-512 512zM727.579 334.821c0-35.032-29.642-64.674-64.674-64.674h-301.811c-35.032 0-64.674 29.642-64.674 64.674v226.358c0 35.032 29.642 64.674 64.674 64.674h301.811c35.032 0 64.674-29.642 64.674-64.674v-226.358z" />
<glyph unicode="&#xe910;" glyph-name="haus-info" d="M512 960c-282.947 0-512-229.053-512-512s229.053-512 512-512 512 229.053 512 512-229.053 512-512 512zM463.495 663.579c0 2.695 2.695 5.389 5.389 5.389h91.621c2.695 0 5.389-2.695 5.389-8.084v-80.842c0-2.695 0-8.084-5.389-8.084h-94.316c-2.695 0-2.695 0-2.695 5.389v86.232zM630.568 229.726c0-5.389-2.695-5.389-2.695-5.389h-226.358c-2.695 0-2.695 5.389-2.695 8.084v75.453c0 2.695 2.695 5.389 2.695 5.389h51.2v134.737h-48.505c-2.695 0-5.389 2.695-5.389 5.389v75.453c0 8.084 2.695 10.779 5.389 10.779h169.768c2.695 0 2.695-2.695 2.695-5.389v-220.968h51.2c2.695 0 2.695-2.695 2.695-5.389v-78.147z" />
<glyph unicode="&#xe911;" glyph-name="haus-lock" d="M509.305 636.632c-43.116 0-78.147-24.253-97.011-59.284-5.389-13.474-10.779-29.642-10.779-45.811h215.579c0 16.168-2.695 32.337-10.779 45.811-16.168 35.032-53.895 59.284-97.011 59.284zM512 445.305c-32.337 0-59.284-24.253-59.284-56.589 0-21.558 8.084-37.726 24.253-48.505v-29.642c0-5.389 5.389-8.084 8.084-8.084h53.895c5.389 0 8.084 5.389 8.084 8.084v29.642c13.474 10.779 24.253 26.947 24.253 48.505 0 29.642-26.947 56.589-59.284 56.589zM512 960c-282.947 0-512-229.053-512-512s229.053-512 512-512 512 229.053 512 512-229.053 512-512 512zM714.105 221.642c0-8.084-8.084-16.168-16.168-16.168h-371.874c-8.084 0-16.168 8.084-16.168 16.168v293.726c0 8.084 8.084 16.168 16.168 16.168h21.558c0 16.168 2.695 32.337 8.084 45.811 18.863 64.674 83.537 113.179 156.295 113.179s137.432-48.505 156.295-113.179c5.389-13.474 8.084-29.642 8.084-45.811h21.558c8.084 0 16.168-8.084 16.168-16.168v-293.726z" />
<glyph unicode="&#xe912;" glyph-name="haus-compass" d="M776.084 693.221l-153.6-358.4-355.705-150.905c64.674-59.284 150.905-97.011 245.221-97.011 199.411 0 361.095 161.684 361.095 361.095 0 94.316-37.726 180.547-97.011 245.221zM576.674 383.326l-129.347 129.347-94.316-223.663zM512 960c-282.947 0-512-229.053-512-512s229.053-512 512-512 512 229.053 512 512-229.053 512-512 512zM512 3.368c-245.221 0-444.632 199.411-444.632 444.632s199.411 444.632 444.632 444.632 444.632-199.411 444.632-444.632c0-245.221-199.411-444.632-444.632-444.632zM757.221 712.084c-64.674 59.284-150.905 97.011-245.221 97.011-199.411 0-361.095-161.684-361.095-361.095 0-94.316 37.726-180.547 97.011-245.221l153.6 358.4 355.705 150.905z" />
<glyph unicode="&#xe913;" glyph-name="haus-office" d="M512 960c-282.947 0-512-229.053-512-512s229.053-512 512-512 512 229.053 512 512-229.053 512-512 512zM512 151.579h-296.421v592.842h296.421v-592.842zM808.421 151.579h-75.453v148.211h-110.484v-148.211h-75.453v334.147h261.389v-334.147zM808.421 523.453h-258.695v37.726h258.695v-37.726zM474.274 299.789h-75.453v75.453h75.453v-75.453zM326.063 596.211h-72.758v75.453h75.453v-75.453zM474.274 448h-75.453v75.453h75.453v-75.453zM474.274 596.211h-75.453v75.453h75.453v-75.453zM326.063 448h-72.758v75.453h75.453v-75.453zM326.063 299.789h-72.758v75.453h75.453v-75.453z" />
<glyph unicode="&#xe914;" glyph-name="haus-minus" d="M512-64c-282.947 0-512 229.053-512 512s229.053 512 512 512c282.947 0 512-229.053 512-512s-229.053-512-512-512zM148.211 520.758v-140.126h724.884v140.126h-724.884z" />
<glyph unicode="&#xe915;" glyph-name="haus-pinterest" d="M1024 448v0c0 282.947-229.053 512-512 512s-512-229.053-512-512v0c0-282.947 229.053-512 512-512v0c282.947 0 512 229.053 512 512zM512 216.253c-21.558 0-45.811 2.695-64.674 10.779 8.084 13.474 18.863 32.337 24.253 48.505 0 10.779 13.474 64.674 13.474 64.674 8.084-16.168 32.337-29.642 56.589-29.642 72.758 0 123.958 67.368 123.958 158.989 0 67.368-56.589 132.042-145.516 132.042-110.484 0-164.379-78.147-164.379-142.821 0-40.421 16.168-75.453 48.505-88.926 5.389-2.695 10.779 0 10.779 5.389s2.695 13.474 5.389 18.863c2.695 5.389 0 8.084-2.695 13.474-8.084 10.779-16.168 24.253-16.168 45.811 0 59.284 43.116 110.484 113.179 110.484 61.979 0 97.011-37.726 97.011-88.926 0-67.368-29.642-121.263-72.758-121.263-24.253 0-43.116 18.863-35.032 43.116 8.084 29.642 21.558 61.979 21.558 80.842s-10.779 35.032-32.337 35.032c-24.253 0-43.116-24.253-43.116-59.284 0-21.558 8.084-37.726 8.084-37.726s-24.253-107.789-29.642-126.653c-5.389-16.168-5.389-37.726-2.695-53.895-80.842 35.032-137.432 115.874-137.432 210.189 0 126.653 102.4 231.747 231.747 231.747 126.653 0 229.053-102.4 229.053-231.747-8.084-123.958-110.484-229.053-237.137-229.053z" />
<glyph unicode="&#xe916;" glyph-name="haus-plus" d="M512-64c-282.947 0-512 229.053-512 512s229.053 512 512 512c282.947 0 512-229.053 512-512s-229.053-512-512-512zM584.758 520.758v293.726h-145.516v-293.726h-291.032v-140.126h291.032v-293.726h145.516v293.726h291.032v140.126h-291.032z" />
<glyph unicode="&#xe917;" glyph-name="haus-search" d="M676.379 846.821c61.979 0 121.263-24.253 164.379-67.368 91.621-91.621 91.621-239.832 0-328.758-43.116-43.116-102.4-67.368-164.379-67.368s-118.568 21.558-164.379 64.674c-43.116 43.116-67.368 102.4-67.368 164.379s24.253 121.263 67.368 164.379c45.811 45.811 102.4 70.063 164.379 70.063zM676.379 960c-88.926 0-177.853-35.032-245.221-102.4-134.737-134.737-134.737-355.705 0-490.442 67.368-67.368 156.295-102.4 245.221-102.4s177.853 35.032 245.221 102.4c134.737 134.737 134.737 355.705 0 490.442-67.368 67.368-156.295 102.4-245.221 102.4v0zM452.716 275.537c-26.947 8.084-51.2 24.253-70.063 43.116s-35.032 43.116-43.116 70.063l-16.168 40.421-274.863-239.832c-29.642-26.947-48.505-64.674-48.505-105.095s13.474-78.147 43.116-107.789c26.947-26.947 64.674-43.116 102.4-43.116 0 0 2.695 0 2.695 0 40.421 0 78.147 18.863 105.095 48.505l239.832 277.558-40.421 16.168z" />
<glyph unicode="&#xe918;" glyph-name="haus-sign" d="M1024-64h-1024v706.048l512 317.952 512-317.952v-706.048z" />
<glyph unicode="&#xe919;" glyph-name="haus-triangle-down" d="M512 138.105l-512 619.789h1024l-512-619.789z" />
<glyph unicode="&#xe91a;" glyph-name="haus-triangle-up" d="M512 757.895l512-619.789h-1024l512 619.789z" />
<glyph unicode="&#xe91b;" glyph-name="haus-twitter" d="M512 960c-282.947 0-512-229.053-512-512s229.053-512 512-512 512 229.053 512 512c0 282.947-229.053 512-512 512zM730.274 520.758c0-5.389 0-8.084 0-13.474 0-132.042-99.705-282.947-282.947-282.947-56.589 0-107.789 16.168-153.6 45.811 8.084 0 16.168-2.695 24.253-2.695 45.811 0 88.926 16.168 123.958 43.116-43.116 0-80.842 29.642-91.621 70.063 5.389 0 13.474-2.695 18.863-2.695 8.084 0 16.168 0 24.253 2.695-45.811 8.084-80.842 48.505-80.842 97.011 0 0 0 0 0 0 18.863-8.084 29.642-10.779 45.811-13.474-26.947 18.863-43.116 48.505-43.116 83.537 0 18.863 5.389 35.032 13.474 51.2 48.505-59.284 121.263-99.705 204.8-105.095-2.695 8.084-2.695 16.168-2.695 21.558 0 53.895 45.811 99.705 99.705 99.705 29.642 0 53.895-10.779 72.758-32.337 21.558 5.389 43.116 13.474 61.979 24.253-8.084-24.253-24.253-43.116-43.116-53.895 18.863 2.695 40.421 8.084 56.589 16.168 0 0 0 0 0 0v0c0 0 0 0 0 0-13.474-16.168-29.642-35.032-48.505-48.505z" />
<glyph unicode="&#xe91c;" glyph-name="haus-video" d="M512-64c-283.307 0-512 228.693-512 512s228.693 512 512 512 512-228.693 512-512-228.693-512-512-512zM732.16 490.667l-276.48 186.027c-15.36 10.24-35.84 11.947-52.907 3.413s-27.307-25.6-27.307-46.080v-373.76c0-18.773 10.24-35.84 27.307-46.080 6.827-3.413 15.36-6.827 23.893-6.827 10.24 0 20.48 3.413 29.013 8.533l276.48 189.44c13.653 10.24 22.187 25.6 22.187 42.667 1.707 17.067-6.827 32.427-22.187 42.667z" />
<glyph unicode="&#xe91d;" glyph-name="haus-zoom-picture" d="M512 921.6c261.12 0 473.6-212.48 473.6-473.6s-212.48-473.6-473.6-473.6-473.6 212.48-473.6 473.6 212.48 473.6 473.6 473.6zM512 960c-281.6 0-512-230.4-512-512s230.4-512 512-512 512 230.4 512 512-230.4 512-512 512v0zM604.16 358.4c-48.64 0-94.72 17.92-128 53.76s-53.76 79.36-53.76 128c0 48.64 17.92 94.72 53.76 128 33.28 33.28 79.36 53.76 128 53.76s94.72-17.92 128-53.76c71.68-71.68 71.68-186.88 0-258.56v0 0c-33.28-33.28-79.36-51.2-128-51.2zM604.16 683.52c-38.4 0-74.24-15.36-102.4-43.52s-40.96-64-40.96-102.4c0-38.4 15.36-74.24 40.96-102.4 28.16-28.16 64-43.52 102.4-43.52s74.24 15.36 102.4 43.52v0c28.16 28.16 43.52 64 43.52 102.4s-15.36 74.24-43.52 102.4c-28.16 30.72-64 43.52-102.4 43.52zM317.44 171.52c-20.48 0-40.96 7.68-56.32 23.040s-25.6 35.84-23.040 58.88 10.24 43.52 25.6 58.88l151.040 130.56 10.24-28.16c5.12-12.8 12.8-25.6 23.040-35.84s23.040-17.92 35.84-23.040l28.16-10.24-130.56-151.040c-17.92-12.8-38.4-20.48-64-23.040 2.56 0 2.56 0 0 0zM399.36 381.44l-110.080-94.72c-7.68-7.68-12.8-17.92-12.8-30.72s5.12-23.040 12.8-30.72c7.68-7.68 17.92-12.8 30.72-12.8s23.040 5.12 30.72 12.8l94.72 110.080c-10.24 5.12-17.92 12.8-25.6 20.48v0c-7.68 7.68-15.36 15.36-20.48 25.6zM678.4 496.64l-43.52 43.52 40.96 40.96-28.16 28.16-40.96-40.96-43.52 43.52-28.16-28.16 43.52-43.52-46.080-40.96 28.16-28.16 40.96 40.96 43.52-43.52 33.28 28.16z" />
<glyph unicode="&#xe91e;" glyph-name="haus-cal" d="M277.558 210.863h466.189v371.874h-466.189v-371.874zM638.653 515.368h72.758v-67.368h-72.758v67.368zM638.653 415.663h72.758v-67.368h-72.758v67.368zM530.863 515.368h72.758v-67.368h-72.758v67.368zM530.863 415.663h72.758v-67.368h-72.758v67.368zM530.863 313.263h72.758v-67.368h-72.758v67.368zM423.074 515.368h72.758v-67.368h-72.758v67.368zM423.074 415.663h72.758v-67.368h-72.758v67.368zM423.074 313.263h72.758v-67.368h-72.758v67.368zM315.284 415.663h72.758v-67.368h-72.758v67.368zM315.284 313.263h72.758v-67.368h-72.758v67.368zM512 960c-282.947 0-512-229.053-512-512s229.053-512 512-512 512 229.053 512 512-229.053 512-512 512zM781.474 178.526h-538.947v538.947h72.758v-32.337h72.758v32.337h250.611v-32.337h72.758v32.337h70.063v-538.947z" />
<glyph unicode="&#xe91f;" glyph-name="haus-phone" d="M512 960c-282.947 0-512-229.053-512-512s229.053-512 512-512 512 229.053 512 512-229.053 512-512 512zM673.684 178.526c-72.758 0-218.274 72.758-288.337 142.821s-142.821 215.579-142.821 288.337c0 0 72.758 107.789 107.789 107.789s142.821-107.789 107.789-142.821-72.758-35.032-72.758-72.758c0-35.032 35.032-72.758 72.758-107.789 35.032-35.032 72.758-72.758 107.789-72.758s35.032 35.032 72.758 72.758c35.032 35.032 142.821-72.758 142.821-107.789s-107.789-107.789-107.789-107.789z" />
<glyph unicode="&#xe920;" glyph-name="haus-whatsapp" d="M512 639.326c-105.095 0-188.632-86.232-188.632-188.632 0-35.032 10.779-70.063 29.642-99.705l5.389-8.084-18.863-70.063 72.758 18.863 8.084-5.389c29.642-16.168 61.979-26.947 97.011-26.947v0c105.095 0 188.632 86.232 188.632 188.632 0 51.2-18.863 97.011-56.589 134.737-37.726 35.032-86.232 56.589-137.432 56.589zM625.179 367.158c-5.389-13.474-26.947-24.253-37.726-26.947s-21.558-2.695-35.032 2.695c-8.084 2.695-18.863 5.389-32.337 10.779-56.589 24.253-94.316 80.842-97.011 86.232-2.695 2.695-24.253 29.642-24.253 59.284 0 26.947 13.474 43.116 18.863 48.505s10.779 8.084 16.168 8.084c2.695 0 8.084 0 10.779 0s8.084 0 13.474-10.779c5.389-10.779 16.168-40.421 18.863-43.116s2.695-5.389 0-10.779c-2.695-2.695-2.695-5.389-5.389-10.779-2.695-2.695-5.389-8.084-8.084-10.779s-5.389-5.389-2.695-10.779c2.695-5.389 13.474-24.253 32.337-40.421 21.558-18.863 40.421-24.253 45.811-26.947s8.084-2.695 13.474 2.695c2.695 2.695 13.474 16.168 18.863 21.558s8.084 5.389 13.474 2.695c5.389-2.695 32.337-16.168 37.726-18.863s10.779-5.389 10.779-5.389c-5.389-2.695-5.389-13.474-8.084-26.947zM512 960c-282.947 0-512-229.053-512-512s229.053-512 512-512 512 229.053 512 512-229.053 512-512 512zM512 221.642v0c-37.726 0-75.453 10.779-107.789 26.947l-121.263-32.337 32.337 118.568c-18.863 35.032-29.642 72.758-29.642 113.179 0 126.653 102.4 229.053 229.053 229.053 61.979 0 118.568-24.253 161.684-67.368s67.368-99.705 67.368-161.684c-2.695-123.958-105.095-226.358-231.747-226.358z" />
</font>
</defs>
</svg>
